# xmcd CD database file
#
# Track frame offsets:
#	150
#	24813
#	39665
#	60446
#	78584
#	94273
#	108245
#	130734
#	156406
#	183966
#	201016
#	222798
#	239668
#
# Disc length: 3507 seconds
#
# Revision: 0
# Processed by: cddbd v1.5.1PL0 Copyright (c) Steve Scherf et al.
# Submitted via: CDex 1.51
#
DISCID=a90db10d
DTITLE=Pete McMahon and the Super Naturals - Boomerang Baby
DYEAR=2002
DGENRE=Blues
TTITLE0=Burning Bridge
TTITLE1=Boomerang Baby
TTITLE2=Why Not Be A Wino
TTITLE3=Stagger Lee
TTITLE4=Jeanne Marie
TTITLE5=I Like My Baby's Puddin'
TTITLE6=Can't Judge A Book
TTITLE7=Good Time Charlie
TTITLE8=All Day Rag
TTITLE9=Lucille
TTITLE10=Before You Go
TTITLE11=Courtin' In A Cadillac
TTITLE12=You Don't See Me
EXTD=YEAR: 2002
EXTT0=
EXTT1=
EXTT2=
EXTT3=
EXTT4=
EXTT5=
EXTT6=
EXTT7=
EXTT8=
EXTT9=
EXTT10=
EXTT11=
EXTT12=
PLAYORDER=
